<mxfile host="65bd71144e">
    <diagram id="CfhJ9GhOOaIr_ApjsFTA" name="第 1 页">
        <mxGraphModel dx="663" dy="370" grid="1" gridSize="10" guides="1" tooltips="1" connect="1" arrows="1" fold="1" page="1" pageScale="1" pageWidth="2339" pageHeight="3300" math="0" shadow="0">
            <root>
                <mxCell id="0"/>
                <mxCell id="1" parent="0"/>
                <mxCell id="2" value="webServer" style="text;strokeColor=none;fillColor=none;html=1;fontSize=24;fontStyle=1;verticalAlign=middle;align=center;rounded=0;" vertex="1" parent="1">
                    <mxGeometry x="90" y="30" width="200" height="60" as="geometry"/>
                </mxCell>
                <mxCell id="31" value="" style="edgeStyle=none;html=1;" edge="1" parent="1" source="9" target="30">
                    <mxGeometry relative="1" as="geometry"/>
                </mxCell>
                <mxCell id="40" value="" style="edgeStyle=none;html=1;" edge="1" parent="1" source="9" target="30">
                    <mxGeometry relative="1" as="geometry"/>
                </mxCell>
                <mxCell id="41" value="" style="edgeStyle=none;html=1;" edge="1" parent="1" source="9" target="28">
                    <mxGeometry relative="1" as="geometry"/>
                </mxCell>
                <mxCell id="9" value="主线程" style="strokeWidth=2;html=1;shape=mxgraph.flowchart.start_1;whiteSpace=wrap;fillColor=#6666FF;" vertex="1" parent="1">
                    <mxGeometry x="350" y="30" width="60" height="30" as="geometry"/>
                </mxCell>
                <mxCell id="14" value="&lt;ul&gt;&lt;li&gt;基于C++11&lt;/li&gt;&lt;li&gt;使用半同步/半反应堆模型&lt;/li&gt;&lt;li&gt;使用设计模式&lt;/li&gt;&lt;li&gt;使用线程池&lt;/li&gt;&lt;li&gt;使用数据库连接池&lt;/li&gt;&lt;/ul&gt;" style="text;strokeColor=none;fillColor=none;html=1;whiteSpace=wrap;verticalAlign=middle;overflow=hidden;" vertex="1" parent="1">
                    <mxGeometry x="70" y="80" width="190" height="120" as="geometry"/>
                </mxCell>
                <mxCell id="24" value="" style="edgeStyle=none;html=1;" edge="1" parent="1" source="15" target="20">
                    <mxGeometry relative="1" as="geometry"/>
                </mxCell>
                <mxCell id="15" value="I / O处理单元" style="rounded=1;whiteSpace=wrap;html=1;absoluteArcSize=1;arcSize=14;strokeWidth=2;fillColor=#FF66FF;" vertex="1" parent="1">
                    <mxGeometry x="384.5" y="130" width="90" height="30" as="geometry"/>
                </mxCell>
                <mxCell id="35" value="" style="edgeStyle=none;html=1;" edge="1" parent="1" source="18" target="34">
                    <mxGeometry relative="1" as="geometry"/>
                </mxCell>
                <mxCell id="37" value="" style="edgeStyle=none;html=1;" edge="1" parent="1" source="18" target="36">
                    <mxGeometry relative="1" as="geometry"/>
                </mxCell>
                <mxCell id="39" value="" style="edgeStyle=none;html=1;" edge="1" parent="1" source="18" target="38">
                    <mxGeometry relative="1" as="geometry"/>
                </mxCell>
                <mxCell id="18" value="工作单元" style="rounded=1;whiteSpace=wrap;html=1;absoluteArcSize=1;arcSize=14;strokeWidth=2;fillColor=#FF0000;" vertex="1" parent="1">
                    <mxGeometry x="396.5" y="243" width="66" height="25" as="geometry"/>
                </mxCell>
                <mxCell id="25" value="" style="edgeStyle=none;html=1;" edge="1" parent="1" source="20" target="18">
                    <mxGeometry relative="1" as="geometry"/>
                </mxCell>
                <mxCell id="20" value="连接请求队列" style="verticalLabelPosition=bottom;verticalAlign=top;html=1;shape=mxgraph.flowchart.parallel_mode;pointerEvents=1;fillColor=#330000;" vertex="1" parent="1">
                    <mxGeometry x="394.5" y="185" width="70" height="20" as="geometry"/>
                </mxCell>
                <mxCell id="29" value="" style="edgeStyle=none;html=1;" edge="1" parent="1" source="28" target="15">
                    <mxGeometry relative="1" as="geometry"/>
                </mxCell>
                <mxCell id="28" value="监听连接请求" style="strokeWidth=2;html=1;shape=mxgraph.flowchart.start_2;whiteSpace=wrap;" vertex="1" parent="1">
                    <mxGeometry x="382.5" y="75" width="80" height="35" as="geometry"/>
                </mxCell>
                <mxCell id="30" value="初始化环境" style="strokeWidth=2;html=1;shape=mxgraph.flowchart.start_2;whiteSpace=wrap;" vertex="1" parent="1">
                    <mxGeometry x="300" y="80" width="70" height="25" as="geometry"/>
                </mxCell>
                <mxCell id="34" value="解析HTTP请求" style="rounded=1;whiteSpace=wrap;html=1;absoluteArcSize=1;arcSize=14;strokeWidth=2;fillColor=#FF9933;" vertex="1" parent="1">
                    <mxGeometry x="320" y="290" width="60" height="40" as="geometry"/>
                </mxCell>
                <mxCell id="36" value="处理HTTP&lt;br&gt;请求" style="rounded=1;whiteSpace=wrap;html=1;absoluteArcSize=1;arcSize=14;strokeWidth=2;fillColor=#FF9933;" vertex="1" parent="1">
                    <mxGeometry x="400" y="290" width="60" height="40" as="geometry"/>
                </mxCell>
                <mxCell id="38" value="回应HTTP请求" style="rounded=1;whiteSpace=wrap;html=1;absoluteArcSize=1;arcSize=14;strokeWidth=2;fillColor=#FF9933;" vertex="1" parent="1">
                    <mxGeometry x="480" y="290" width="60" height="40" as="geometry"/>
                </mxCell>
                <mxCell id="42" value="多线程" style="rounded=0;whiteSpace=wrap;html=1;fillColor=#FF9933;" vertex="1" parent="1">
                    <mxGeometry x="525" y="50" width="50" height="20" as="geometry"/>
                </mxCell>
                <mxCell id="43" value="颜色说明" style="text;html=1;align=center;verticalAlign=middle;resizable=0;points=[];autosize=1;strokeColor=none;fillColor=none;" vertex="1" parent="1">
                    <mxGeometry x="520" y="20" width="60" height="20" as="geometry"/>
                </mxCell>
            </root>
        </mxGraphModel>
    </diagram>
</mxfile>